HIERARCHY
ROOT Hips
{
 OFFSET 0.000000 0.000000 0.000000
 CHANNELS 6 Xposition Yposition Zposition Yrotation Xrotation Zrotation
 JOINT Chest
 {
  OFFSET 0.000000 9.585900 0.002600
  CHANNELS 3 Yrotation Xrotation Zrotation
  JOINT Chest2
  {
   OFFSET 0.000000 9.601200 -0.005300
   CHANNELS 3 Yrotation Xrotation Zrotation
   JOINT Chest3
   {
    OFFSET 0.000000 9.561800 0.000000
    CHANNELS 3 Yrotation Xrotation Zrotation
    JOINT Chest4
    {
     OFFSET 0.000000 9.552100 0.000000
     CHANNELS 3 Yrotation Xrotation Zrotation
     JOINT Neck
     {
      OFFSET 0.000000 14.453000 0.000000
      CHANNELS 3 Yrotation Xrotation Zrotation
      JOINT Head
      {
       OFFSET 0.000000 8.936500 -0.011300
       CHANNELS 3 Yrotation Xrotation Zrotation
       End Site
       {
        OFFSET 0.000000 17.073600 -0.006000
       }
      }
     }
     JOINT RightCollar
     {
      OFFSET -2.921100 9.558500 0.000000
      CHANNELS 3 Yrotation Xrotation Zrotation
      JOINT RightShoulder
      {
       OFFSET -13.519700 0.000000 0.000000
       CHANNELS 3 Yrotation Xrotation Zrotation
       JOINT RightElbow
       {
        OFFSET 0.000000 -29.696600 0.000000
        CHANNELS 3 Yrotation Xrotation Zrotation
        JOINT RightWrist
        {
         OFFSET 0.000000 -24.004700 0.000000
         CHANNELS 3 Yrotation Xrotation Zrotation
         End Site
         {
          OFFSET 0.000000 -17.728500 0.000000
         }
        }
       }
      }
     }
     JOINT LeftCollar
     {
      OFFSET 2.921100 9.558500 0.000000
      CHANNELS 3 Yrotation Xrotation Zrotation
      JOINT LeftShoulder
      {
       OFFSET 13.519700 0.000000 0.000000
       CHANNELS 3 Yrotation Xrotation Zrotation
       JOINT LeftElbow
       {
        OFFSET 0.000000 -29.696600 0.000000
        CHANNELS 3 Yrotation Xrotation Zrotation
        JOINT LeftWrist
        {
         OFFSET 0.000000 -24.004700 0.000000
         CHANNELS 3 Yrotation Xrotation Zrotation
         End Site
         {
          OFFSET 0.000000 -17.728500 0.000000
         }
        }
       }
      }
     }
    }
   }
  }
 }
 JOINT RightHip
 {
  OFFSET -7.771700 -0.012900 -0.001300
  CHANNELS 3 Yrotation Xrotation Zrotation
  JOINT RightKnee
  {
   OFFSET 0.000000 -40.869800 0.001200
   CHANNELS 3 Yrotation Xrotation Zrotation
   JOINT RightAnkle
   {
    OFFSET 0.000000 -39.717900 0.002100
    CHANNELS 3 Yrotation Xrotation Zrotation
    JOINT RightToe
    {
     OFFSET 0.000000 -4.965400 11.033500
     CHANNELS 3 Yrotation Xrotation Zrotation
     End Site
     {
      OFFSET 0.000000 -1.423100 5.872300
     }
    }
   }
  }
 }
 JOINT LeftHip
 {
  OFFSET 7.771700 -0.012900 -0.001300
  CHANNELS 3 Yrotation Xrotation Zrotation
  JOINT LeftKnee
  {
   OFFSET 0.000000 -40.869800 0.001200
   CHANNELS 3 Yrotation Xrotation Zrotation
   JOINT LeftAnkle
   {
    OFFSET 0.000000 -39.717900 0.002100
    CHANNELS 3 Yrotation Xrotation Zrotation
    JOINT LeftToe
    {
     OFFSET 0.000000 -4.965400 11.033500
     CHANNELS 3 Yrotation Xrotation Zrotation
     End Site
     {
      OFFSET 0.000000 -1.423100 5.872300
     }
    }
   }
  }
 }
}
MOTION
Frames: 13
Frame Time: 0.008333
-13.993274 57.929461 26.240840 176.188544 -26.903208 -1.574566 2.496727 13.504889 1.440124 0.194064 1.137104 0.034826 0.329300 1.927457 0.061190 2.159306 12.252160 0.587486 -5.711441 10.161907 -1.925566 -10.121555 -16.774932 -1.216221 4.216244 1.704778 3.442160 30.100288 -33.113382 -28.095932 54.937630 -63.334356 -8.791178 6.723003 -21.326633 -40.528396 -3.964798 -0.349448 2.133928 -7.017561 -10.066083 2.887633 -47.338348 -42.170330 18.047444 -21.298087 -13.769404 42.274159 10.853176 -45.754581 -0.639540 0.890892 72.699965 -0.278293 2.701601 3.253803 6.013729 -0.044699 0.115785 -0.031436 -7.307260 -47.630745 -2.260876 32.093304 75.627762 32.771094 -20.833198 -1.969851 -2.510051 -0.160557 -0.839463 -0.073579
-13.996147 57.926639 26.236577 176.212700 -26.881423 -1.579761 2.569191 13.504624 1.432691 0.200512 1.138836 0.032719 0.340219 1.930172 0.057728 2.224794 12.254473 0.570638 -5.816621 10.214604 -1.884590 -10.374404 -16.709034 -1.056327 4.177091 1.668032 3.485798 30.167993 -33.180859 -28.169960 55.167697 -63.272834 -8.996846 6.767681 -21.331448 -40.572189 -3.974454 -0.324286 2.180430 -6.965587 -10.083075 2.840467 -47.491825 -42.231857 18.171941 -21.309122 -13.760500 42.282480 10.836612 -45.773506 -0.658874 0.915465 72.711132 -0.253654 2.704246 3.236915 6.015435 -0.045870 0.119846 -0.033691 -7.349460 -47.665597 -2.234425 32.106034 75.644265 32.756429 -20.852746 -1.942098 -2.491614 -0.154340 -0.833154 -0.077590
-14.001087 57.924152 26.231243 176.229485 -26.855369 -1.572820 2.621324 13.494959 1.415750 0.227962 1.144831 0.025119 0.351622 1.931827 0.054441 2.293781 12.253009 0.555213 -5.939862 10.243554 -1.826379 -10.605267 -16.604967 -0.931127 4.141694 1.633750 3.531755 30.263885 -33.252210 -28.253974 55.418600 -63.209418 -9.203747 6.810427 -21.332296 -40.606495 -3.980426 -0.293345 2.224884 -6.908393 -10.104995 2.799216 -47.645549 -42.292808 18.290202 -21.326339 -13.759778 42.280869 10.836766 -45.796683 -0.700243 0.936115 72.725584 -0.223154 2.710907 3.219519 6.009997 -0.041706 0.123423 -0.035978 -7.372765 -47.706024 -2.216376 32.150042 75.663658 32.750952 -20.844936 -1.910215 -2.449321 -0.174012 -0.843511 -0.085772
-14.002782 57.922341 26.224942 176.253702 -26.825830 -1.591588 2.687952 13.484378 1.420883 0.234307 1.144874 0.023287 0.362308 1.931867 0.051423 2.359463 12.246787 0.541643 -6.046121 10.309508 -1.793741 -10.860004 -16.516056 -0.783677 4.122844 1.604600 3.576609 30.389195 -33.326048 -28.350717 55.700114 -63.147231 -9.427439 6.854043 -21.335079 -40.622374 -3.972046 -0.254472 2.264700 -6.845901 -10.130268 2.764953 -47.810704 -42.357177 18.400194 -21.342459 -13.756677 42.280616 10.782576 -45.822705 -0.713655 0.970513 72.732572 -0.161648 2.731813 3.205295 5.975492 -0.029241 0.125986 -0.036187 -7.424250 -47.756266 -2.148405 32.155255 75.702449 32.699577 -20.864238 -1.858981 -2.404765 -0.174286 -0.881436 -0.088458
-14.012138 57.922349 26.214063 176.260786 -26.811284 -1.557870 2.776563 13.493406 1.382056 0.219305 1.138914 0.027173 0.372045 1.930157 0.048662 2.420156 12.235634 0.529289 -6.156981 10.378573 -1.764341 -11.109753 -16.418023 -0.647794 4.123597 1.582718 3.616682 30.544166 -33.400307 -28.462600 56.042942 -63.095235 -9.704978 6.909033 -21.343904 -40.623386 -3.950512 -0.207605 2.298993 -6.779314 -10.156288 2.737702 -47.989317 -42.424487 18.504220 -21.356086 -13.747166 42.286454 10.793279 -45.832002 -0.777257 1.011486 72.755624 -0.117031 2.735100 3.185101 5.962228 -0.030122 0.124319 -0.033866 -7.393461 -47.780353 -2.189006 32.203844 75.713191 32.706193 -20.834028 -1.817874 -2.351986 -0.216902 -0.908057 -0.102272
-14.017406 57.920084 26.208350 176.278196 -26.752143 -1.557426 2.837719 13.450672 1.372682 0.183238 1.129892 0.034446 0.422597 1.933973 0.036394 2.479512 12.219768 0.517674 -6.277156 10.435257 -1.729641 -11.353685 -16.303387 -0.532338 4.135992 1.568337 3.654650 30.728908 -33.474185 -28.591208 56.500097 -63.061370 -10.088389 6.987370 -21.356146 -40.617345 -3.923966 -0.154778 2.331794 -6.712873 -10.180452 2.714714 -48.175652 -42.489888 18.609720 -21.367828 -13.738063 42.289635 10.764658 -45.889182 -0.796903 1.052946 72.768215 -0.085241 2.733598 3.178248 5.955846 -0.027299 0.119261 -0.033588 -7.400510 -47.852788 -2.175334 32.231057 75.736117 32.700765 -20.828265 -1.790318 -2.308503 -0.215211 -0.911596 -0.108130
-14.025633 57.921094 26.195834 176.277205 -26.726075 -1.530235 2.914216 13.440675 1.347284 0.144794 1.120222 0.041656 0.475634 1.936558 0.024380 2.540273 12.200138 0.507215 -6.402883 10.491175 -1.698035 -11.606637 -16.189635 -0.420852 4.153657 1.559190 3.693895 30.943196 -33.549309 -28.738874 57.135345 -63.045941 -10.635591 7.095425 -21.371497 -40.602917 -3.897356 -0.101286 2.367903 -6.651386 -10.200575 2.690736 -48.366856 -42.548781 18.721076 -21.375845 -13.733003 42.289389 10.756426 -45.911202 -0.829326 1.099897 72.788974 -0.054197 2.732845 3.166677 5.950405 -0.023371 0.112683 -0.034274 -7.350623 -47.895772 -2.204826 32.320731 75.765005 32.738774 -20.788704 -1.734361 -2.213793 -0.270666 -0.941968 -0.135782
-14.025574 57.922962 26.182765 176.282948 -26.697833 -1.556977 3.002899 13.427060 1.377709 0.212705 1.127954 0.026636 0.423445 1.920933 0.037000 2.602551 12.179054 0.498513 -6.541410 10.525789 -1.651970 -11.859682 -16.068984 -0.335534 4.173569 1.549877 3.731975 31.186622 -33.626328 -28.906236 58.010594 -63.048066 -11.404164 7.239875 -21.389584 -40.580464 -3.876352 -0.051625 2.408281 -6.592578 -10.217042 2.660565 -48.597464 -42.581913 18.804016 -21.367661 -13.718575 42.351821 10.682140 -45.935354 -0.789313 1.123052 72.793038 -0.031933 2.746032 3.163794 5.925765 -0.035686 0.111211 -0.028971 -7.322849 -47.942511 -2.189816 32.332421 75.798473 32.760703 -20.807074 -1.627528 -2.146471 -0.334732 -1.022777 -0.165378
-14.033260 57.924854 26.168799 176.297589 -26.663142 -1.542913 3.076189 13.411392 1.366607 0.241830 1.128619 0.021557 0.410140 1.913101 0.039440 2.666560 12.158733 0.491750 -6.686614 10.555594 -1.611076 -12.124992 -15.960211 -0.253182 4.194917 1.535806 3.761871 31.457944 -33.705845 -29.088165 59.179543 -63.068949 -12.444447 7.429590 -21.396834 -40.555892 -3.862277 -0.006460 2.451399 -6.534983 -10.231449 2.623841 -48.779310 -42.638304 18.946400 -21.384945 -13.723464 42.330095 10.640529 -45.961907 -0.829225 1.079662 72.810904 -0.061927 2.798590 3.145113 5.886683 -0.033283 0.113537 -0.024555 -7.261832 -47.991369 -2.247531 32.384299 75.816493 32.816910 -20.800935 -1.566720 -2.105541 -0.375196 -1.055706 -0.168804
-14.040137 57.926391 26.155754 176.317244 -26.616341 -1.538304 3.146911 13.384096 1.366027 0.247808 1.126345 0.020558 0.420369 1.909328 0.037748 2.732308 12.139926 0.486758 -6.821946 10.629041 -1.625596 -12.437135 -15.901020 -0.109908 4.218538 1.516587 3.781139 31.752249 -33.791735 -29.279175 60.678565 -63.104301 -13.782867 7.669016 -21.380838 -40.537334 -3.853527 0.035272 2.497245 -6.488725 -10.242783 2.581347 -48.953889 -42.687172 19.101665 -21.404086 -13.730893 42.308649 10.615518 -46.002922 -0.860798 1.057159 72.828557 -0.079818 2.820860 3.138968 5.868756 -0.024658 0.102482 -0.023726 -7.190490 -48.046864 -2.312022 32.424901 75.830817 32.881565 -20.797477 -1.533948 -2.069226 -0.361151 -1.062419 -0.172910
-14.048479 57.928632 26.141198 176.334342 -26.574612 -1.525657 3.196771 13.357424 1.356646 0.275377 1.129913 0.019074 0.430620 1.906056 0.036378 2.798193 12.122374 0.483876 -6.974268 10.661937 -1.610842 -12.734671 -15.828286 -0.018178 4.246126 1.494090 3.792371 32.069548 -33.887677 -29.481361 62.534472 -63.140124 -15.437202 7.955790 -21.346675 -40.540747 -3.847167 0.072463 2.543893 -6.460129 -10.247936 2.532862 -49.129166 -42.715745 19.252578 -21.421890 -13.736661 42.315079 10.556439 -46.039213 -0.879179 1.090503 72.849134 -0.062080 2.841849 3.134285 5.845748 -0.024480 0.094864 -0.023154 -7.154542 -48.092651 -2.358599 32.494911 75.836305 32.951647 -20.805240 -1.515644 -2.040466 -0.368836 -1.055629 -0.175058
-14.057664 57.931136 26.126062 176.349575 -26.533824 -1.509716 3.200685 13.322808 1.336011 0.346161 1.145827 0.018415 0.440557 1.903088 0.035377 2.862082 12.105767 0.482859 -7.129415 10.689100 -1.602203 -13.035139 -15.766227 0.063420 4.276462 1.471593 3.795512 32.421518 -33.994605 -29.699264 64.781608 -63.155064 -17.440761 8.280398 -21.311970 -40.590798 -3.836336 0.101752 2.587211 -6.445877 -10.246345 2.476927 -49.300265 -42.731634 19.421013 -21.437738 -13.741491 42.322083 10.503719 -46.074897 -0.905033 1.117133 72.870770 -0.047308 2.870343 3.131847 5.819187 -0.024807 0.086718 -0.020748 -7.112893 -48.138918 -2.410707 32.560383 75.841298 33.021734 -20.827858 -1.487811 -2.017087 -0.374468 -1.057456 -0.175380
-14.065896 57.933073 26.112203 176.369073 -26.483913 -1.504750 3.333024 13.312963 1.357523 0.287045 1.127827 0.019840 0.449826 1.900411 0.034597 2.921513 12.090351 0.482514 -7.284338 10.711642 -1.600484 -13.332321 -15.713118 0.131763 4.310848 1.452156 3.791512 32.824020 -34.107633 -29.942443 67.432510 -63.125554 -19.818335 8.627219 -21.303340 -40.707292 -3.818956 0.123564 2.622284 -6.445567 -10.239766 2.413291 -49.470998 -42.734932 19.607845 -21.449603 -13.742792 42.332988 10.481787 -46.120854 -0.935600 1.123360 72.889847 -0.043633 2.887062 3.137667 5.806280 -0.024542 0.075012 -0.017276 -7.051597 -48.197449 -2.475259 32.605066 75.852253 33.095254 -20.834461 -1.451827 -1.997239 -0.373298 -1.066938 -0.173471
